Amstelvar-Roman_opsz144.ufo
<glyph name="numbersign" format="2">
  <advance width="1145"/>
  <unicode hex="0023"/>
  <outline>
    <contour>
      <point x="16" y="456" type="line"/>
      <point x="16" y="628" type="line"/>
      <point x="1053" y="628" type="line"/>
      <point x="1053" y="456" type="line"/>
    </contour>
    <contour>
      <point x="92" y="856" type="line"/>
      <point x="92" y="1028" type="line"/>
      <point x="1128" y="1028" type="line"/>
      <point x="1128" y="856" type="line"/>
    </contour>
    <contour>
      <point x="193" y="-66" type="line"/>
      <point x="456" y="1534" type="line"/>
      <point x="515" y="1527" type="line"/>
      <point x="252" y="-73" type="line"/>
    </contour>
    <contour>
      <point x="635" y="-66" type="line"/>
      <point x="899" y="1534" type="line"/>
      <point x="958" y="1527" type="line"/>
      <point x="694" y="-73" type="line"/>
    </contour>
  </outline>
</glyph>
<glyph name="percent" format="2">
  <advance width="1943"/>
  <unicode hex="0025"/>
  <outline>
    <contour>
      <point x="60" y="1131" type="qcurve" smooth="yes"/>
      <point x="60" y="1294"/>
      <point x="299" y="1521"/>
      <point x="474" y="1521" type="qcurve" smooth="yes"/>
      <point x="661" y="1521"/>
      <point x="891" y="1311"/>
      <point x="891" y="1137" type="qcurve" smooth="yes"/>
      <point x="891" y="963"/>
      <point x="665" y="722"/>
      <point x="479" y="722" type="qcurve" smooth="yes"/>
      <point x="291" y="722"/>
      <point x="60" y="968"/>
    </contour>
    <contour>
      <point x="214" y="1146" type="qcurve" smooth="yes"/>
      <point x="215" y="985"/>
      <point x="356" y="751"/>
      <point x="474" y="751" type="qcurve" smooth="yes"/>
      <point x="600" y="751"/>
      <point x="736" y="958"/>
      <point x="736" y="1138" type="qcurve" smooth="yes"/>
      <point x="736" y="1318"/>
      <point x="594" y="1493"/>
      <point x="475" y="1493" type="qcurve" smooth="yes"/>
      <point x="348" y="1493"/>
      <point x="212" y="1307"/>
    </contour>
    <contour>
      <point x="426" y="-5" type="line"/>
      <point x="1467" y="1527" type="line"/>
      <point x="1509" y="1503" type="line"/>
      <point x="467" y="-30" type="line"/>
    </contour>
    <contour>
      <point x="1052" y="396" type="qcurve" smooth="yes"/>
      <point x="1052" y="559"/>
      <point x="1291" y="786"/>
      <point x="1466" y="786" type="qcurve" smooth="yes"/>
      <point x="1654" y="786"/>
      <point x="1883" y="576"/>
      <point x="1883" y="402" type="qcurve" smooth="yes"/>
      <point x="1883" y="228"/>
      <point x="1658" y="-13"/>
      <point x="1471" y="-13" type="qcurve" smooth="yes"/>
      <point x="1283" y="-13"/>
      <point x="1052" y="233"/>
    </contour>
    <contour>
      <point x="1205" y="411" type="qcurve" smooth="yes"/>
      <point x="1206" y="250"/>
      <point x="1348" y="16"/>
      <point x="1466" y="16" type="qcurve" smooth="yes"/>
      <point x="1592" y="16"/>
      <point x="1727" y="223"/>
      <point x="1727" y="403" type="qcurve" smooth="yes"/>
      <point x="1727" y="583"/>
      <point x="1586" y="758"/>
      <point x="1467" y="758" type="qcurve" smooth="yes"/>
      <point x="1341" y="758"/>
      <point x="1204" y="572"/>
    </contour>
  </outline>
</glyph>
<glyph name="ampersand" format="2">
  <advance width="1714"/>
  <unicode hex="0026"/>
  <outline>
    <contour>
      <point x="678" y="-34" type="qcurve" smooth="yes"/>
      <point x="351" y="-34"/>
      <point x="26" y="232"/>
      <point x="24" y="380" type="qcurve" smooth="yes"/>
      <point x="23" y="571"/>
      <point x="301" y="802"/>
      <point x="511" y="872" type="qcurve"/>
      <point x="716" y="956"/>
      <point x="903" y="1120"/>
      <point x="903" y="1221" type="qcurve" smooth="yes"/>
      <point x="903" y="1341"/>
      <point x="744" y="1525"/>
      <point x="617" y="1525" type="qcurve" smooth="yes"/>
      <point x="499" y="1525"/>
      <point x="349" y="1340"/>
      <point x="349" y="1234" type="qcurve" smooth="yes"/>
      <point x="349" y="1149"/>
      <point x="471" y="986"/>
      <point x="602" y="888" type="qcurve"/>
      <point x="1319" y="194" type="line" smooth="yes"/>
      <point x="1369" y="151"/>
      <point x="1455" y="81"/>
      <point x="1521" y="81" type="qcurve" smooth="yes"/>
      <point x="1590" y="81"/>
      <point x="1675" y="153"/>
      <point x="1703" y="211" type="qcurve"/>
      <point x="1732" y="197" type="line"/>
      <point x="1688" y="94"/>
      <point x="1569" y="-24"/>
      <point x="1471" y="-24" type="qcurve" smooth="yes"/>
      <point x="1385" y="-24"/>
      <point x="1244" y="82"/>
      <point x="1167" y="152" type="qcurve" smooth="yes"/>
      <point x="460" y="836" type="line"/>
      <point x="372" y="904"/>
      <point x="227" y="1068"/>
      <point x="227" y="1199" type="qcurve" smooth="yes"/>
      <point x="227" y="1347"/>
      <point x="449" y="1559"/>
      <point x="598" y="1559" type="qcurve" smooth="yes"/>
      <point x="747" y="1559"/>
      <point x="943" y="1359"/>
      <point x="943" y="1224" type="qcurve" smooth="yes"/>
      <point x="943" y="1102"/>
      <point x="754" y="928"/>
      <point x="561" y="848" type="qcurve"/>
      <point x="358" y="773"/>
      <point x="198" y="538"/>
      <point x="199" y="419" type="qcurve" smooth="yes"/>
      <point x="201" y="291"/>
      <point x="452" y="52"/>
      <point x="717" y="52" type="qcurve" smooth="yes"/>
      <point x="1052" y="52"/>
      <point x="1459" y="466"/>
      <point x="1439" y="783" type="qcurve"/>
      <point x="1488" y="795" type="line"/>
      <point x="1497" y="454"/>
      <point x="1032" y="-34"/>
    </contour>
    <contour>
      <point x="956" y="762" type="line"/>
      <point x="978" y="810"/>
      <point x="1088" y="887"/>
      <point x="1141" y="887" type="qcurve" smooth="yes"/>
      <point x="1174" y="887"/>
      <point x="1535" y="791"/>
      <point x="1575" y="791" type="qcurve" smooth="yes"/>
      <point x="1612" y="791"/>
      <point x="1670" y="808"/>
      <point x="1691" y="832" type="qcurve"/>
      <point x="1714" y="812" type="line"/>
      <point x="1685" y="754"/>
      <point x="1589" y="673"/>
      <point x="1535" y="673" type="qcurve" smooth="yes"/>
      <point x="1497" y="673"/>
      <point x="1139" y="766"/>
      <point x="1107" y="764" type="qcurve" smooth="yes"/>
      <point x="1074" y="766"/>
      <point x="1002" y="748"/>
      <point x="984" y="722" type="qcurve"/>
    </contour>
  </outline>
</glyph>
<glyph name="parenleft" format="2">
  <advance width="581"/>
  <unicode hex="0028"/>
  <outline>
    <contour>
      <point x="56" y="672" type="qcurve" smooth="yes"/>
      <point x="56" y="947"/>
      <point x="368" y="1391"/>
      <point x="539" y="1506" type="qcurve"/>
      <point x="555" y="1493" type="line"/>
      <point x="413" y="1366"/>
      <point x="235" y="949"/>
      <point x="235" y="672" type="qcurve" smooth="yes"/>
      <point x="235" y="395"/>
      <point x="403" y="-15"/>
      <point x="555" y="-149" type="qcurve"/>
      <point x="539" y="-162" type="line"/>
      <point x="357" y="-39"/>
      <point x="56" y="398"/>
    </contour>
  </outline>
</glyph>
<glyph name="hyphen" format="2">
  <advance width="795"/>
  <unicode hex="002D"/>
  <outline>
    <contour>
      <point x="80" y="570" type="line"/>
      <point x="80" y="691" type="line"/>
      <point x="398" y="691" type="line"/>
      <point x="715" y="691" type="line"/>
      <point x="715" y="570" type="line"/>
      <point x="398" y="570" type="line"/>
    </contour>
  </outline>
</glyph>
<glyph name="less" format="2">
  <advance width="938"/>
  <unicode hex="003C"/>
  <outline>
    <contour>
      <point x="169" y="634" type="qcurve"/>
      <point x="190" y="665"/>
      <point x="668" y="928"/>
      <point x="724" y="954" type="qcurve" smooth="yes"/>
      <point x="733" y="956"/>
      <point x="773" y="894"/>
      <point x="764" y="890" type="qcurve" smooth="yes"/>
      <point x="662" y="827"/>
      <point x="381" y="646"/>
      <point x="355" y="634" type="qcurve"/>
      <point x="381" y="624"/>
      <point x="680" y="430"/>
      <point x="762" y="376" type="qcurve" smooth="yes"/>
      <point x="769" y="373"/>
      <point x="734" y="312"/>
      <point x="724" y="314" type="qcurve" smooth="yes"/>
      <point x="632" y="355"/>
      <point x="171" y="609"/>
    </contour>
  </outline>
</glyph>
<glyph name="greater" format="2">
  <advance width="946"/>
  <unicode hex="003E"/>
  <outline>
    <contour>
      <point x="181" y="381" type="qcurve" smooth="yes"/>
      <point x="279" y="444"/>
      <point x="564" y="623"/>
      <point x="590" y="635" type="qcurve"/>
      <point x="564" y="645"/>
      <point x="270" y="843"/>
      <point x="182" y="896" type="qcurve" smooth="yes"/>
      <point x="175" y="898"/>
      <point x="212" y="959"/>
      <point x="221" y="958" type="qcurve" smooth="yes"/>
      <point x="311" y="919"/>
      <point x="774" y="658"/>
      <point x="776" y="633" type="qcurve"/>
      <point x="755" y="602"/>
      <point x="279" y="346"/>
      <point x="220" y="318" type="qcurve" smooth="yes"/>
      <point x="211" y="315"/>
      <point x="174" y="377"/>
    </contour>
  </outline>
</glyph>
<glyph name="question" format="2">
  <advance width="823"/>
  <unicode hex="003F"/>
  <outline>
    <contour>
      <point x="170" y="92" type="qcurve" smooth="yes"/>
      <point x="170" y="137"/>
      <point x="234" y="204"/>
      <point x="284" y="204" type="qcurve" smooth="yes"/>
      <point x="334" y="204"/>
      <point x="397" y="137"/>
      <point x="397" y="92" type="qcurve" smooth="yes"/>
      <point x="397" y="46"/>
      <point x="334" y="-22"/>
      <point x="284" y="-22" type="qcurve" smooth="yes"/>
      <point x="234" y="-22"/>
      <point x="170" y="46"/>
    </contour>
    <contour>
      <point x="16" y="1269" type="qcurve" smooth="yes"/>
      <point x="16" y="1365"/>
      <point x="217" y="1533"/>
      <point x="404" y="1533" type="qcurve" smooth="yes"/>
      <point x="573" y="1533"/>
      <point x="799" y="1342"/>
      <point x="799" y="1169" type="qcurve" smooth="yes"/>
      <point x="799" y="1028"/>
      <point x="630" y="832"/>
      <point x="515" y="768" type="qcurve" smooth="yes"/>
      <point x="388" y="697"/>
      <point x="289" y="576"/>
      <point x="291" y="451" type="qcurve" smooth="yes"/>
      <point x="294" y="402" type="line"/>
      <point x="262" y="402" type="line"/>
      <point x="252" y="521" type="line" smooth="yes"/>
      <point x="243" y="611"/>
      <point x="361" y="759"/>
      <point x="449" y="837" type="qcurve" smooth="yes"/>
      <point x="523" y="903"/>
      <point x="617" y="1100"/>
      <point x="617" y="1224" type="qcurve" smooth="yes"/>
      <point x="617" y="1366"/>
      <point x="483" y="1472"/>
      <point x="383" y="1472" type="qcurve" smooth="yes"/>
      <point x="256" y="1472"/>
      <point x="86" y="1366"/>
      <point x="86" y="1293" type="qcurve" smooth="yes"/>
      <point x="86" y="1287"/>
      <point x="188" y="1225"/>
      <point x="188" y="1190" type="qcurve" smooth="yes"/>
      <point x="188" y="1156"/>
      <point x="146" y="1109"/>
      <point x="107" y="1109" type="qcurve" smooth="yes"/>
      <point x="78" y="1109"/>
      <point x="16" y="1185"/>
    </contour>
  </outline>
</glyph>
<glyph name="at" format="2">
  <advance width="1603"/>
  <unicode hex="0040"/>
  <outline>
    <contour>
      <point x="60" y="736" type="qcurve" smooth="yes"/>
      <point x="60" y="1068"/>
      <point x="510" y="1516"/>
      <point x="818" y="1516" type="qcurve" smooth="yes"/>
      <point x="1131" y="1516"/>
      <point x="1543" y="1135"/>
      <point x="1543" y="825" type="qcurve" smooth="yes"/>
      <point x="1547" y="589"/>
      <point x="1300" y="353"/>
      <point x="1160" y="353" type="qcurve" smooth="yes"/>
      <point x="1074" y="353"/>
      <point x="955" y="424"/>
      <point x="937" y="464" type="qcurve"/>
      <point x="907" y="422"/>
      <point x="786" y="342"/>
      <point x="697" y="342" type="qcurve" smooth="yes"/>
      <point x="573" y="342"/>
      <point x="446" y="472"/>
      <point x="446" y="578" type="qcurve" smooth="yes"/>
      <point x="446" y="684"/>
      <point x="709" y="826"/>
      <point x="986" y="888" type="qcurve"/>
      <point x="987" y="866" type="line"/>
      <point x="800" y="824"/>
      <point x="605" y="690"/>
      <point x="605" y="570" type="qcurve" smooth="yes"/>
      <point x="605" y="479"/>
      <point x="670" y="387"/>
      <point x="742" y="387" type="qcurve" smooth="yes"/>
      <point x="808" y="387"/>
      <point x="919" y="495"/>
      <point x="935" y="568" type="qcurve"/>
      <point x="938" y="966" type="line" smooth="yes"/>
      <point x="939" y="1060"/>
      <point x="847" y="1153"/>
      <point x="770" y="1153" type="qcurve" smooth="yes"/>
      <point x="684" y="1153"/>
      <point x="578" y="1095"/>
      <point x="578" y="1049" type="qcurve"/>
      <point x="578" y="1045"/>
      <point x="667" y="976"/>
      <point x="667" y="955" type="qcurve" smooth="yes"/>
      <point x="667" y="935"/>
      <point x="635" y="890"/>
      <point x="588" y="890" type="qcurve" smooth="yes"/>
      <point x="552" y="890"/>
      <point x="501" y="955"/>
      <point x="501" y="1007" type="qcurve" smooth="yes"/>
      <point x="501" y="1082"/>
      <point x="650" y="1191"/>
      <point x="809" y="1191" type="qcurve" smooth="yes"/>
      <point x="939" y="1191"/>
      <point x="1084" y="1043"/>
      <point x="1087" y="875" type="qcurve" smooth="yes"/>
      <point x="1094" y="447" type="line" smooth="yes"/>
      <point x="1095" y="416"/>
      <point x="1146" y="410"/>
      <point x="1179" y="410" type="qcurve" smooth="yes"/>
      <point x="1280" y="410"/>
      <point x="1437" y="591"/>
      <point x="1437" y="809" type="qcurve" smooth="yes"/>
      <point x="1437" y="1118"/>
      <point x="1093" y="1482"/>
      <point x="819" y="1482" type="qcurve" smooth="yes"/>
      <point x="520" y="1482"/>
      <point x="171" y="1058"/>
      <point x="171" y="760" type="qcurve" smooth="yes"/>
      <point x="171" y="434"/>
      <point x="554" y="4"/>
      <point x="826" y="4" type="qcurve" smooth="yes"/>
      <point x="948" y="4"/>
      <point x="1144" y="82"/>
      <point x="1199" y="145" type="qcurve"/>
      <point x="1213" y="128" type="line"/>
      <point x="1154" y="58"/>
      <point x="947" y="-26"/>
      <point x="824" y="-26" type="qcurve" smooth="yes"/>
      <point x="522" y="-26"/>
      <point x="60" y="402"/>
    </contour>
  </outline>
</glyph>
<glyph name="B" format="2">
  <advance width="1136"/>
  <unicode hex="0042"/>
  <anchor x="568" y="0" name="bottom"/>
  <anchor x="568" y="1500" name="top"/>
  <outline>
    <contour>
      <point x="61" y="0" type="line"/>
      <point x="61" y="25" type="line"/>
      <point x="226" y="61" type="line"/>
      <point x="228" y="784" type="line"/>
      <point x="226" y="1437" type="line"/>
      <point x="61" y="1471" type="line"/>
      <point x="61" y="1500" type="line"/>
      <point x="601" y="1500" type="line" smooth="yes"/>
      <point x="799" y="1500"/>
      <point x="990" y="1315"/>
      <point x="990" y="1175" type="qcurve" smooth="yes"/>
      <point x="990" y="1038"/>
      <point x="855" y="860"/>
      <point x="739" y="838" type="qcurve"/>
      <point x="739" y="831" type="line"/>
      <point x="884" y="808"/>
      <point x="1077" y="613"/>
      <point x="1077" y="446" type="qcurve" smooth="yes"/>
      <point x="1077" y="250"/>
      <point x="835" y="0"/>
      <point x="618" y="0" type="qcurve" smooth="yes"/>
    </contour>
    <contour>
      <point x="393" y="49" type="line"/>
      <point x="425" y="28" type="line"/>
      <point x="607" y="28" type="line" smooth="yes"/>
      <point x="756" y="28"/>
      <point x="902" y="224"/>
      <point x="902" y="436" type="qcurve" smooth="yes"/>
      <point x="902" y="617"/>
      <point x="756" y="804"/>
      <point x="634" y="804" type="qcurve" smooth="yes"/>
      <point x="391" y="804" type="line"/>
      <point x="391" y="791" type="line"/>
    </contour>
    <contour>
      <point x="391" y="851" type="line"/>
      <point x="391" y="832" type="line"/>
      <point x="575" y="832" type="line" smooth="yes"/>
      <point x="695" y="832"/>
      <point x="828" y="1020"/>
      <point x="828" y="1180" type="qcurve" smooth="yes"/>
      <point x="828" y="1333"/>
      <point x="700" y="1469"/>
      <point x="594" y="1469" type="qcurve" smooth="yes"/>
      <point x="422" y="1469" type="line"/>
      <point x="394" y="1453" type="line"/>
    </contour>
  </outline>
</glyph>
<glyph name="C" format="2">
  <advance width="1252"/>
  <unicode hex="0043"/>
  <anchor x="735" y="0" name="bottom"/>
  <anchor x="724" y="1500" name="top"/>
  <outline>
    <contour>
      <point x="64" y="734" type="qcurve" smooth="yes"/>
      <point x="64" y="1098"/>
      <point x="462" y="1518"/>
      <point x="725" y="1518" type="qcurve" smooth="yes"/>
      <point x="837" y="1518"/>
      <point x="1041" y="1460"/>
      <point x="1109" y="1413" type="qcurve"/>
      <point x="1146" y="1489" type="line"/>
      <point x="1173" y="1489" type="line"/>
      <point x="1173" y="1067" type="line"/>
      <point x="1145" y="1067" type="line"/>
      <point x="1094" y="1240" type="line" smooth="yes"/>
      <point x="1054" y="1376"/>
      <point x="856" y="1484"/>
      <point x="730" y="1484" type="qcurve" smooth="yes"/>
      <point x="505" y="1484"/>
      <point x="242" y="1109"/>
      <point x="243" y="744" type="qcurve" smooth="yes"/>
      <point x="244" y="406"/>
      <point x="554" y="27"/>
      <point x="784" y="27" type="qcurve" smooth="yes"/>
      <point x="946" y="27"/>
      <point x="1176" y="170"/>
      <point x="1222" y="253" type="qcurve"/>
      <point x="1247" y="238" type="line"/>
      <point x="1188" y="125"/>
      <point x="923" y="-26"/>
      <point x="733" y="-26" type="qcurve" smooth="yes"/>
      <point x="449" y="-26"/>
      <point x="64" y="382"/>
    </contour>
  </outline>
</glyph>
<glyph name="D" format="2">
  <advance width="1367"/>
  <unicode hex="0044"/>
  <anchor x="615" y="0" name="bottom"/>
  <anchor x="391" y="750" name="center"/>
  <anchor x="615" y="1500" name="top"/>
  <outline>
    <contour>
      <point x="61" y="0" type="line"/>
      <point x="61" y="25" type="line"/>
      <point x="226" y="64" type="line"/>
      <point x="228" y="759" type="line"/>
      <point x="226" y="1434" type="line"/>
      <point x="61" y="1471" type="line"/>
      <point x="61" y="1500" type="line"/>
      <point x="653" y="1500" type="line" smooth="yes"/>
      <point x="946" y="1500"/>
      <point x="1303" y="1152"/>
      <point x="1303" y="777" type="qcurve" smooth="yes"/>
      <point x="1303" y="409"/>
      <point x="933" y="0"/>
      <point x="628" y="0" type="qcurve" smooth="yes"/>
    </contour>
    <contour>
      <point x="392" y="42" type="line"/>
      <point x="420" y="38"/>
      <point x="556" y="32"/>
      <point x="636" y="32" type="qcurve" smooth="yes"/>
      <point x="877" y="32"/>
      <point x="1123" y="404"/>
      <point x="1125" y="761" type="qcurve" smooth="yes"/>
      <point x="1126" y="1107"/>
      <point x="851" y="1470"/>
      <point x="613" y="1470" type="qcurve" smooth="yes"/>
      <point x="543" y="1470"/>
      <point x="421" y="1458"/>
      <point x="392" y="1450" type="qcurve"/>
      <point x="390" y="759" type="line"/>
    </contour>
  </outline>
</glyph>
<glyph name="H" format="2">
  <advance width="1483"/>
  <unicode hex="0048"/>
  <anchor x="742" y="0" name="bottom"/>
  <anchor x="742" y="1083" name="center"/>
  <anchor x="742" y="1500" name="top"/>
  <outline>
    <contour>
      <point x="61" y="0" type="line"/>
      <point x="61" y="25" type="line"/>
      <point x="226" y="60" type="line"/>
      <point x="228" y="775" type="line"/>
      <point x="226" y="1437" type="line"/>
      <point x="61" y="1471" type="line"/>
      <point x="61" y="1500" type="line"/>
      <point x="558" y="1500" type="line"/>
      <point x="558" y="1471" type="line"/>
      <point x="393" y="1437" type="line"/>
      <point x="391" y="775" type="line"/>
      <point x="393" y="60" type="line"/>
      <point x="558" y="25" type="line"/>
      <point x="558" y="0" type="line"/>
    </contour>
    <contour>
      <point x="309" y="766" type="line"/>
      <point x="309" y="798" type="line"/>
      <point x="699" y="795" type="line"/>
      <point x="1168" y="798" type="line"/>
      <point x="1168" y="766" type="line"/>
      <point x="699" y="766" type="line"/>
    </contour>
    <contour>
      <point x="925" y="0" type="line"/>
      <point x="925" y="25" type="line"/>
      <point x="1090" y="60" type="line"/>
      <point x="1092" y="775" type="line"/>
      <point x="1090" y="1437" type="line"/>
      <point x="925" y="1471" type="line"/>
      <point x="925" y="1500" type="line"/>
      <point x="1422" y="1500" type="line"/>
      <point x="1422" y="1471" type="line"/>
      <point x="1257" y="1437" type="line"/>
      <point x="1255" y="775" type="line"/>
      <point x="1257" y="60" type="line"/>
      <point x="1422" y="25" type="line"/>
      <point x="1422" y="0" type="line"/>
    </contour>
  </outline>
</glyph>
<glyph name="O" format="2">
  <advance width="1425"/>
  <unicode hex="004F"/>
  <anchor x="712" y="0" name="bottom"/>
  <anchor x="712" y="750" name="center"/>
  <anchor x="890" y="0" name="ogonek"/>
  <anchor x="712" y="1500" name="top"/>
  <anchor x="863" y="1500" name="topright"/>
  <outline>
    <contour>
      <point x="65" y="741" type="qcurve" smooth="yes"/>
      <point x="65" y="1103"/>
      <point x="457" y="1519"/>
      <point x="712" y="1519" type="qcurve" smooth="yes"/>
      <point x="967" y="1519"/>
      <point x="1360" y="1121"/>
      <point x="1360" y="766" type="qcurve" smooth="yes"/>
      <point x="1360" y="382"/>
      <point x="972" y="-26"/>
      <point x="716" y="-26" type="qcurve" smooth="yes"/>
      <point x="459" y="-26"/>
      <point x="65" y="371"/>
    </contour>
    <contour>
      <point x="243" y="753" type="qcurve" smooth="yes"/>
      <point x="243" y="377"/>
      <point x="513" y="5"/>
      <point x="723" y="5" type="qcurve" smooth="yes"/>
      <point x="933" y="5"/>
      <point x="1182" y="364"/>
      <point x="1182" y="752" type="qcurve" smooth="yes"/>
      <point x="1182" y="1111"/>
      <point x="919" y="1487"/>
      <point x="706" y="1487" type="qcurve" smooth="yes"/>
      <point x="495" y="1487"/>
      <point x="243" y="1140"/>
    </contour>
  </outline>
</glyph>
<glyph name="P" format="2">
  <advance width="1122"/>
  <unicode hex="0050"/>
  <anchor x="561" y="0" name="bottom"/>
  <anchor x="561" y="1500" name="top"/>
  <outline>
    <contour>
      <point x="61" y="0" type="line"/>
      <point x="61" y="25" type="line"/>
      <point x="226" y="62" type="line"/>
      <point x="228" y="754" type="line"/>
      <point x="226" y="1437" type="line"/>
      <point x="61" y="1471" type="line"/>
      <point x="61" y="1500" type="line"/>
      <point x="623" y="1500" type="line" smooth="yes"/>
      <point x="842" y="1500"/>
      <point x="1080" y="1294"/>
      <point x="1080" y="1086" type="qcurve" smooth="yes"/>
      <point x="1080" y="882"/>
      <point x="840" y="630"/>
      <point x="583" y="630" type="qcurve" smooth="yes"/>
      <point x="520" y="630"/>
      <point x="356" y="646"/>
      <point x="319" y="657" type="qcurve"/>
      <point x="328" y="686" type="line"/>
      <point x="378" y="672"/>
      <point x="501" y="659"/>
      <point x="581" y="659" type="qcurve" smooth="yes"/>
      <point x="741" y="659"/>
      <point x="901" y="862"/>
      <point x="901" y="1093" type="qcurve" smooth="yes"/>
      <point x="901" y="1286"/>
      <point x="730" y="1472"/>
      <point x="580" y="1472" type="qcurve" smooth="yes"/>
      <point x="421" y="1472" type="line"/>
      <point x="393" y="1448" type="line"/>
      <point x="391" y="764" type="line"/>
      <point x="393" y="57" type="line"/>
      <point x="575" y="25" type="line"/>
      <point x="575" y="0" type="line"/>
    </contour>
  </outline>
</glyph>
<glyph name="Q" format="2">
  <advance width="1426"/>
  <unicode hex="0051"/>
  <anchor x="713" y="0" name="bottom"/>
  <anchor x="713" y="1500" name="top"/>
  <outline>
    <contour>
      <point x="65" y="744" type="qcurve" smooth="yes"/>
      <point x="65" y="1092"/>
      <point x="430" y="1519"/>
      <point x="712" y="1519" type="qcurve" smooth="yes"/>
      <point x="995" y="1519"/>
      <point x="1360" y="1117"/>
      <point x="1360" y="754" type="qcurve" smooth="yes"/>
      <point x="1360" y="398"/>
      <point x="988" y="-11"/>
      <point x="714" y="-11" type="qcurve" smooth="yes"/>
      <point x="431" y="-11"/>
      <point x="65" y="397"/>
    </contour>
    <contour>
      <point x="243" y="780" type="qcurve" smooth="yes"/>
      <point x="243" y="373"/>
      <point x="515" y="18"/>
      <point x="712" y="18" type="qcurve" smooth="yes"/>
      <point x="926" y="18"/>
      <point x="1180" y="339"/>
      <point x="1182" y="758" type="qcurve" smooth="yes"/>
      <point x="1182" y="1118"/>
      <point x="915" y="1487"/>
      <point x="714" y="1487" type="qcurve" smooth="yes"/>
      <point x="499" y="1487"/>
      <point x="242" y="1158"/>
    </contour>
    <contour>
      <point x="207" y="-258" type="qcurve"/>
      <point x="188" y="-238" type="line"/>
      <point x="220" y="-197"/>
      <point x="442" y="-77"/>
      <point x="496" y="-50" type="qcurve"/>
      <point x="764" y="201" type="line"/>
      <point x="794" y="184" type="line"/>
      <point x="541" y="-67" type="line"/>
      <point x="1135" y="-246" type="line"/>
      <point x="1197" y="-267"/>
      <point x="1302" y="-193"/>
      <point x="1344" y="-110" type="qcurve"/>
      <point x="1369" y="-123" type="line"/>
      <point x="1328" y="-217"/>
      <point x="1157" y="-367"/>
      <point x="1099" y="-384" type="qcurve"/>
      <point x="506" y="-194" type="line"/>
      <point x="431" y="-168"/>
      <point x="290" y="-188"/>
    </contour>
  </outline>
</glyph>
<glyph name="R" format="2">
  <advance width="1183"/>
  <unicode hex="0052"/>
  <anchor x="592" y="0" name="bottom"/>
  <anchor x="519" y="1500" name="top"/>
  <outline>
    <contour>
      <point x="61" y="0" type="line"/>
      <point x="61" y="25" type="line"/>
      <point x="226" y="61" type="line"/>
      <point x="228" y="813" type="line"/>
      <point x="226" y="1437" type="line"/>
      <point x="61" y="1471" type="line"/>
      <point x="61" y="1500" type="line"/>
      <point x="627" y="1500" type="line" smooth="yes"/>
      <point x="835" y="1500"/>
      <point x="1031" y="1317"/>
      <point x="1031" y="1138" type="qcurve" smooth="yes"/>
      <point x="1031" y="972"/>
      <point x="819" y="752"/>
      <point x="641" y="752" type="qcurve" smooth="yes"/>
      <point x="574" y="752"/>
      <point x="378" y="758"/>
      <point x="329" y="762" type="qcurve"/>
      <point x="331" y="789" type="line"/>
      <point x="559" y="787" type="line" smooth="yes"/>
      <point x="718" y="786"/>
      <point x="862" y="980"/>
      <point x="862" y="1137" type="qcurve" smooth="yes"/>
      <point x="862" y="1309"/>
      <point x="725" y="1470"/>
      <point x="583" y="1470" type="qcurve" smooth="yes"/>
      <point x="428" y="1470" type="line"/>
      <point x="395" y="1448" type="line"/>
      <point x="391" y="809" type="line"/>
      <point x="393" y="61" type="line"/>
      <point x="566" y="25" type="line"/>
      <point x="566" y="0" type="line"/>
    </contour>
    <contour>
      <point x="585" y="760" type="line"/>
      <point x="736" y="795" type="line"/>
      <point x="1019" y="288" type="line" smooth="yes"/>
      <point x="1120" y="104"/>
      <point x="1178" y="34"/>
      <point x="1256" y="25" type="qcurve"/>
      <point x="1256" y="0" type="line"/>
      <point x="1014" y="0" type="line"/>
      <point x="984" y="30" type="line"/>
    </contour>
  </outline>
</glyph>
<glyph name="S" format="2">
  <advance width="978"/>
  <unicode hex="0053"/>
  <anchor x="523" y="0" name="bottom"/>
  <anchor x="467" y="1500" name="top"/>
  <outline>
    <contour>
      <point x="47" y="1" type="line"/>
      <point x="47" y="423" type="line"/>
      <point x="74" y="423" type="line"/>
      <point x="137" y="258" type="line" smooth="yes"/>
      <point x="182" y="138"/>
      <point x="383" y="5"/>
      <point x="525" y="5" type="qcurve" smooth="yes"/>
      <point x="667" y="5"/>
      <point x="823" y="174"/>
      <point x="823" y="310" type="qcurve" smooth="yes"/>
      <point x="823" y="438"/>
      <point x="643" y="614"/>
      <point x="447" y="717" type="qcurve" smooth="yes"/>
      <point x="244" y="822"/>
      <point x="78" y="1011"/>
      <point x="78" y="1159" type="qcurve" smooth="yes"/>
      <point x="78" y="1319"/>
      <point x="291" y="1518"/>
      <point x="468" y="1518" type="qcurve" smooth="yes"/>
      <point x="589" y="1518"/>
      <point x="742" y="1437"/>
      <point x="783" y="1396" type="qcurve"/>
      <point x="831" y="1487" type="line"/>
      <point x="854" y="1487" type="line"/>
      <point x="854" y="1107" type="line"/>
      <point x="829" y="1106" type="line"/>
      <point x="779" y="1256" type="line" smooth="yes"/>
      <point x="743" y="1365"/>
      <point x="589" y="1487"/>
      <point x="465" y="1487" type="qcurve" smooth="yes"/>
      <point x="346" y="1487"/>
      <point x="190" y="1352"/>
      <point x="190" y="1247" type="qcurve" smooth="yes"/>
      <point x="190" y="1120"/>
      <point x="356" y="975"/>
      <point x="556" y="863" type="qcurve" smooth="yes"/>
      <point x="737" y="762"/>
      <point x="945" y="550"/>
      <point x="945" y="393" type="qcurve" smooth="yes"/>
      <point x="945" y="216"/>
      <point x="709" y="-25"/>
      <point x="520" y="-25" type="qcurve" smooth="yes"/>
      <point x="393" y="-25"/>
      <point x="222" y="53"/>
      <point x="154" y="123" type="qcurve"/>
      <point x="75" y="1" type="line"/>
    </contour>
  </outline>
</glyph>
<glyph name="Z" format="2">
  <advance width="1022"/>
  <unicode hex="005A"/>
  <anchor x="511" y="0" name="bottom"/>
  <anchor x="511" y="1500" name="top"/>
  <outline>
    <contour>
      <point x="52" y="0" type="line"/>
      <point x="34" y="44" type="line"/>
      <point x="780" y="1464" type="line"/>
      <point x="774" y="1470" type="line"/>
      <point x="197" y="1470" type="line"/>
      <point x="95" y="1124" type="line"/>
      <point x="66" y="1124" type="line"/>
      <point x="66" y="1500" type="line"/>
      <point x="959" y="1500" type="line"/>
      <point x="959" y="1460" type="line"/>
      <point x="215" y="42" type="line"/>
      <point x="220" y="28" type="line"/>
      <point x="842" y="28" type="line"/>
      <point x="983" y="351" type="line"/>
      <point x="1009" y="351" type="line"/>
      <point x="969" y="0" type="line"/>
    </contour>
  </outline>
</glyph>
<glyph name="bracketright" format="2">
  <advance width="586"/>
  <unicode hex="005D"/>
  <outline>
    <contour>
      <point x="34" y="-150" type="line"/>
      <point x="34" y="-121" type="line"/>
      <point x="326" y="-108" type="line"/>
      <point x="328" y="508" type="line"/>
      <point x="326" y="1458" type="line"/>
      <point x="34" y="1471" type="line"/>
      <point x="34" y="1500" type="line"/>
      <point x="473" y="1500" type="line"/>
      <point x="473" y="1472" type="line"/>
      <point x="461" y="1458" type="line"/>
      <point x="455" y="508" type="line"/>
      <point x="461" y="-108" type="line"/>
      <point x="473" y="-122" type="line"/>
      <point x="473" y="-150" type="line"/>
    </contour>
  </outline>
</glyph>
<glyph name="asciicircum" format="2">
  <advance width="1125"/>
  <unicode hex="005E"/>
  <outline>
    <contour>
      <point x="106" y="980" type="line"/>
      <point x="154" y="1052"/>
      <point x="548" y="1517"/>
      <point x="548" y="1517" type="qcurve"/>
      <point x="548" y="1517"/>
      <point x="967" y="1049"/>
      <point x="1018" y="981" type="qcurve"/>
      <point x="993" y="959" type="line"/>
      <point x="883" y="1063"/>
      <point x="548" y="1341"/>
      <point x="548" y="1341" type="qcurve"/>
      <point x="548" y="1341"/>
      <point x="239" y="1067"/>
      <point x="131" y="958" type="qcurve"/>
    </contour>
  </outline>
</glyph>
<glyph name="n" format="2">
  <advance width="1109"/>
  <unicode hex="006E"/>
  <anchor x="554" y="0" name="bottom"/>
  <anchor x="554" y="920" name="top"/>
  <outline>
    <contour>
      <point x="56" y="0" type="line"/>
      <point x="56" y="21" type="line"/>
      <point x="178" y="56" type="line"/>
      <point x="181" y="469" type="line"/>
      <point x="176" y="830" type="line"/>
      <point x="56" y="865" type="line"/>
      <point x="56" y="889" type="line"/>
      <point x="307" y="923" type="line"/>
      <point x="326" y="912" type="line"/>
      <point x="329" y="778" type="line"/>
      <point x="373" y="848"/>
      <point x="549" y="942"/>
      <point x="656" y="942" type="qcurve" smooth="yes"/>
      <point x="800" y="942"/>
      <point x="939" y="788"/>
      <point x="939" y="666" type="qcurve" smooth="yes"/>
      <point x="939" y="594"/>
      <point x="934" y="535"/>
      <point x="935" y="491" type="qcurve" smooth="yes"/>
      <point x="940" y="56" type="line"/>
      <point x="1060" y="21" type="line"/>
      <point x="1060" y="0" type="line"/>
      <point x="661" y="0" type="line"/>
      <point x="661" y="21" type="line"/>
      <point x="782" y="56" type="line"/>
      <point x="784" y="467" type="line"/>
      <point x="785" y="681" type="line" smooth="yes"/>
      <point x="785" y="781"/>
      <point x="687" y="873"/>
      <point x="598" y="873" type="qcurve" smooth="yes"/>
      <point x="505" y="873"/>
      <point x="365" y="795"/>
      <point x="330" y="740" type="qcurve"/>
      <point x="330" y="469" type="line"/>
      <point x="333" y="56" type="line"/>
      <point x="452" y="21" type="line"/>
      <point x="452" y="0" type="line"/>
    </contour>
  </outline>
</glyph>
<glyph name="o" format="2">
  <advance width="1045"/>
  <unicode hex="006F"/>
  <anchor x="522" y="0" name="bottom"/>
  <anchor x="522" y="460" name="center"/>
  <anchor x="673" y="0" name="ogonek"/>
  <anchor x="522" y="920" name="top"/>
  <anchor x="678" y="920" name="topright"/>
  <outline>
    <contour>
      <point x="48" y="460" type="qcurve" smooth="yes"/>
      <point x="48" y="673"/>
      <point x="313" y="942"/>
      <point x="521" y="942" type="qcurve" smooth="yes"/>
      <point x="729" y="942"/>
      <point x="997" y="679"/>
      <point x="997" y="466" type="qcurve" smooth="yes"/>
      <point x="997" y="252"/>
      <point x="735" y="-20"/>
      <point x="525" y="-20" type="qcurve" smooth="yes"/>
      <point x="315" y="-20"/>
      <point x="48" y="236"/>
    </contour>
    <contour>
      <point x="214" y="479" type="qcurve" smooth="yes"/>
      <point x="214" y="235"/>
      <point x="386" y="7"/>
      <point x="519" y="7" type="qcurve" smooth="yes"/>
      <point x="661" y="7"/>
      <point x="832" y="206"/>
      <point x="831" y="461" type="qcurve" smooth="yes"/>
      <point x="831" y="701"/>
      <point x="653" y="913"/>
      <point x="521" y="913" type="qcurve" smooth="yes"/>
      <point x="379" y="913"/>
      <point x="214" y="711"/>
    </contour>
  </outline>
</glyph>
<glyph name="currency" format="2">
  <advance width="1207"/>
  <unicode hex="00A4"/>
  <outline>
    <contour>
      <point x="179" y="811" type="qcurve" smooth="yes"/>
      <point x="179" y="985"/>
      <point x="408" y="1229"/>
      <point x="593" y="1229" type="qcurve" smooth="yes"/>
      <point x="780" y="1229"/>
      <point x="1011" y="1001"/>
      <point x="1011" y="816" type="qcurve" smooth="yes"/>
      <point x="1011" y="643"/>
      <point x="784" y="393"/>
      <point x="598" y="393" type="qcurve" smooth="yes"/>
      <point x="412" y="393"/>
      <point x="179" y="625"/>
    </contour>
    <contour>
      <point x="269" y="827" type="qcurve" smooth="yes"/>
      <point x="270" y="677"/>
      <point x="446" y="469"/>
      <point x="591" y="469" type="qcurve" smooth="yes"/>
      <point x="747" y="469"/>
      <point x="915" y="658"/>
      <point x="915" y="816" type="qcurve" smooth="yes"/>
      <point x="915" y="959"/>
      <point x="739" y="1147"/>
      <point x="593" y="1147" type="qcurve" smooth="yes"/>
      <point x="436" y="1147"/>
      <point x="268" y="976"/>
    </contour>
    <contour>
      <point x="315" y="1108" type="line"/>
      <point x="63" y="1336" type="line"/>
      <point x="93" y="1369" type="line"/>
      <point x="332" y="1127" type="line"/>
    </contour>
    <contour>
      <point x="888" y="1088" type="line"/>
      <point x="871" y="1107" type="line"/>
      <point x="1120" y="1369" type="line"/>
      <point x="1150" y="1336" type="line"/>
    </contour>
    <contour>
      <point x="325" y="515" type="line"/>
      <point x="342" y="496" type="line"/>
      <point x="93" y="235" type="line"/>
      <point x="63" y="267" type="line"/>
    </contour>
    <contour>
      <point x="878" y="525" type="line"/>
      <point x="1150" y="267" type="line"/>
      <point x="1120" y="235" type="line"/>
      <point x="861" y="506" type="line"/>
    </contour>
  </outline>
</glyph>
<glyph name="threesuperior" format="2">
  <advance width="592"/>
  <unicode hex="00B3"/>
  <outline>
    <contour>
      <point x="-2" y="890" type="qcurve"/>
      <point x="27" y="922" type="line"/>
      <point x="65" y="859"/>
      <point x="185" y="799"/>
      <point x="258" y="799" type="qcurve" smooth="yes"/>
      <point x="337" y="799"/>
      <point x="417" y="894"/>
      <point x="417" y="990" type="qcurve" smooth="yes"/>
      <point x="417" y="1064"/>
      <point x="296" y="1158"/>
      <point x="197" y="1158" type="qcurve" smooth="yes"/>
      <point x="172" y="1158" type="line"/>
      <point x="169" y="1187" type="line"/>
      <point x="214" y="1191" type="line" smooth="yes"/>
      <point x="320" y="1200"/>
      <point x="400" y="1275"/>
      <point x="400" y="1350" type="qcurve" smooth="yes"/>
      <point x="400" y="1408"/>
      <point x="332" y="1481"/>
      <point x="268" y="1481" type="qcurve" smooth="yes"/>
      <point x="214" y="1481"/>
      <point x="121" y="1437"/>
      <point x="84" y="1395" type="qcurve"/>
      <point x="54" y="1419" type="line"/>
      <point x="99" y="1466"/>
      <point x="207" y="1520"/>
      <point x="284" y="1520" type="qcurve" smooth="yes"/>
      <point x="403" y="1520"/>
      <point x="532" y="1427"/>
      <point x="532" y="1353" type="qcurve" smooth="yes"/>
      <point x="532" y="1275"/>
      <point x="424" y="1197"/>
      <point x="318" y="1175" type="qcurve"/>
      <point x="318" y="1172" type="line"/>
      <point x="429" y="1169"/>
      <point x="555" y="1071"/>
      <point x="555" y="997" type="qcurve" smooth="yes"/>
      <point x="555" y="877"/>
      <point x="395" y="752"/>
      <point x="289" y="752" type="qcurve" smooth="yes"/>
      <point x="181" y="752"/>
      <point x="31" y="831"/>
    </contour>
  </outline>
</glyph>
<glyph name="onesuperior" format="2">
  <advance width="686"/>
  <unicode hex="00B9"/>
  <outline>
    <contour>
      <point x="124" y="767" type="line"/>
      <point x="124" y="799" type="line"/>
      <point x="289" y="829" type="line"/>
      <point x="292" y="1154" type="line"/>
      <point x="289" y="1402" type="line"/>
      <point x="112" y="1427" type="line"/>
      <point x="112" y="1459" type="line"/>
      <point x="419" y="1513" type="line"/>
      <point x="441" y="1498" type="line"/>
      <point x="435" y="1154" type="line"/>
      <point x="437" y="829" type="line"/>
      <point x="596" y="799" type="line"/>
      <point x="596" y="767" type="line"/>
    </contour>
  </outline>
</glyph>
<glyph name="eth" format="2">
  <advance width="995"/>
  <unicode hex="00F0"/>
  <outline>
    <contour>
      <point x="48" y="455" type="qcurve" smooth="yes"/>
      <point x="48" y="668"/>
      <point x="300" y="932"/>
      <point x="491" y="932" type="qcurve" smooth="yes"/>
      <point x="682" y="932"/>
      <point x="897" y="675"/>
      <point x="897" y="462" type="qcurve"/>
      <point x="774" y="466" type="line"/>
      <point x="768" y="709"/>
      <point x="599" y="903"/>
      <point x="491" y="903" type="qcurve" smooth="yes"/>
      <point x="367" y="903"/>
      <point x="214" y="706"/>
      <point x="214" y="474" type="qcurve" smooth="yes"/>
      <point x="214" y="230"/>
      <point x="365" y="7"/>
      <point x="481" y="7" type="qcurve" smooth="yes"/>
      <point x="616" y="7"/>
      <point x="765" y="240"/>
      <point x="765" y="461" type="qcurve" smooth="yes"/>
      <point x="765" y="920"/>
      <point x="566" y="1420"/>
      <point x="291" y="1519" type="qcurve"/>
      <point x="304" y="1546" type="line"/>
      <point x="630" y="1439"/>
      <point x="923" y="883"/>
      <point x="923" y="589" type="qcurve" smooth="yes"/>
      <point x="923" y="280"/>
      <point x="678" y="-20"/>
      <point x="487" y="-20" type="qcurve" smooth="yes"/>
      <point x="294" y="-20"/>
      <point x="48" y="231"/>
    </contour>
    <contour>
      <point x="373" y="1165" type="line"/>
      <point x="839" y="1485" type="line"/>
      <point x="881" y="1433" type="line"/>
      <point x="415" y="1113" type="line"/>
    </contour>
  </outline>
</glyph>
<glyph name="breveinvertedcomb" format="2">
  <advance width="896"/>
  <unicode hex="030F"/>
  <anchor x="448" y="920" name="_top"/>
  <anchor x="448" y="1260" name="top"/>
  <outline>
    <contour>
      <point x="208" y="1030" type="qcurve"/>
      <point x="174" y="1046" type="line"/>
      <point x="192" y="1135"/>
      <point x="349" y="1260"/>
      <point x="449" y="1260" type="qcurve"/>
      <point x="549" y="1260"/>
      <point x="712" y="1119"/>
      <point x="722" y="1043" type="qcurve"/>
      <point x="692" y="1030" type="line"/>
      <point x="671" y="1074"/>
      <point x="527" y="1154"/>
      <point x="450" y="1155" type="qcurve"/>
      <point x="375" y="1154"/>
      <point x="233" y="1076"/>
    </contour>
  </outline>
</glyph>
<glyph name="dblgravecomb" format="2">
  <advance width="896"/>
  <unicode hex="0311"/>
  <anchor x="448" y="920" name="_top"/>
  <anchor x="448" y="1338" name="top"/>
  <outline>
    <contour>
      <point x="68" y="1284" type="qcurve"/>
      <point x="68" y="1299"/>
      <point x="104" y="1338"/>
      <point x="123" y="1338" type="qcurve" smooth="yes"/>
      <point x="142" y="1338"/>
      <point x="186" y="1317"/>
      <point x="201" y="1294" type="qcurve" smooth="yes"/>
      <point x="360" y="1046" type="line"/>
      <point x="340" y="1030" type="line"/>
      <point x="101" y="1214" type="line" smooth="yes"/>
      <point x="82" y="1228"/>
      <point x="68" y="1268"/>
    </contour>
    <contour>
      <point x="386" y="1284" type="qcurve"/>
      <point x="386" y="1299"/>
      <point x="422" y="1338"/>
      <point x="441" y="1338" type="qcurve" smooth="yes"/>
      <point x="460" y="1338"/>
      <point x="504" y="1317"/>
      <point x="519" y="1294" type="qcurve" smooth="yes"/>
      <point x="678" y="1046" type="line"/>
      <point x="658" y="1030" type="line"/>
      <point x="419" y="1214" type="line" smooth="yes"/>
      <point x="400" y="1228"/>
      <point x="386" y="1268"/>
    </contour>
  </outline>
</glyph>
<glyph name="dotbelowcomb" format="2">
  <advance width="896"/>
  <unicode hex="0323"/>
  <anchor x="448" y="0" name="_bottom"/>
  <anchor x="448" y="-369" name="bottom"/>
  <outline>
    <contour>
      <point x="352" y="-274" type="qcurve" smooth="yes"/>
      <point x="352" y="-229"/>
      <point x="401" y="-180"/>
      <point x="448" y="-180" type="qcurve" smooth="yes"/>
      <point x="492" y="-180"/>
      <point x="544" y="-233"/>
      <point x="544" y="-274" type="qcurve" smooth="yes"/>
      <point x="544" y="-320"/>
      <point x="495" y="-369"/>
      <point x="448" y="-369" type="qcurve" smooth="yes"/>
      <point x="404" y="-369"/>
      <point x="352" y="-316"/>
    </contour>
  </outline>
</glyph>
<glyph name="minute" format="2">
  <advance width="564"/>
  <unicode hex="2032"/>
  <outline>
    <contour>
      <point x="97" y="994" type="line"/>
      <point x="277" y="1451" type="line" smooth="yes"/>
      <point x="302" y="1493"/>
      <point x="374" y="1532"/>
      <point x="421" y="1504" type="qcurve" smooth="yes"/>
      <point x="468" y="1476"/>
      <point x="466" y="1392"/>
      <point x="440" y="1351" type="qcurve" smooth="yes"/>
      <point x="112" y="986" type="line"/>
    </contour>
  </outline>
</glyph>
<glyph name="second" format="2">
  <advance width="910"/>
  <unicode hex="2033"/>
  <outline>
    <contour>
      <point x="97" y="994" type="line"/>
      <point x="277" y="1451" type="line" smooth="yes"/>
      <point x="302" y="1493"/>
      <point x="374" y="1532"/>
      <point x="421" y="1504" type="qcurve" smooth="yes"/>
      <point x="468" y="1476"/>
      <point x="466" y="1392"/>
      <point x="440" y="1351" type="qcurve" smooth="yes"/>
      <point x="112" y="986" type="line"/>
    </contour>
    <contour>
      <point x="443" y="994" type="line"/>
      <point x="622" y="1451" type="line" smooth="yes"/>
      <point x="648" y="1493"/>
      <point x="720" y="1532"/>
      <point x="767" y="1504" type="qcurve" smooth="yes"/>
      <point x="813" y="1476"/>
      <point x="812" y="1392"/>
      <point x="786" y="1351" type="qcurve" smooth="yes"/>
      <point x="458" y="986" type="line"/>
    </contour>
  </outline>
</glyph>
<glyph name="foursuperior" format="2">
  <advance width="670"/>
  <unicode hex="2074"/>
  <outline>
    <contour>
      <point x="28" y="1032" type="line"/>
      <point x="383" y="1554" type="line"/>
      <point x="466" y="1536" type="line"/>
      <point x="486" y="1513" type="line"/>
      <point x="489" y="1014" type="line"/>
      <point x="489" y="815" type="line"/>
      <point x="613" y="797" type="line"/>
      <point x="613" y="767" type="line"/>
      <point x="212" y="767" type="line"/>
      <point x="212" y="797" type="line"/>
      <point x="351" y="815" type="line"/>
      <point x="358" y="1013" type="line"/>
      <point x="363" y="1478" type="line"/>
      <point x="84" y="1060" type="line"/>
      <point x="87" y="1049" type="line"/>
      <point x="661" y="1045" type="line"/>
      <point x="661" y="999" type="line"/>
      <point x="47" y="998" type="line"/>
    </contour>
  </outline>
</glyph>
<glyph name="breveacutecomb.case" format="2">
  <advance width="1024"/>
  <anchor x="512" y="1500" name="_top"/>
  <outline>
    <contour>
      <point x="756" y="1830" type="qcurve"/>
      <point x="786" y="1817" type="line"/>
      <point x="776" y="1741"/>
      <point x="613" y="1600"/>
      <point x="513" y="1600" type="qcurve" smooth="yes"/>
      <point x="413" y="1600"/>
      <point x="256" y="1725"/>
      <point x="238" y="1814" type="qcurve"/>
      <point x="272" y="1830" type="line"/>
      <point x="297" y="1784"/>
      <point x="439" y="1698"/>
      <point x="514" y="1697" type="qcurve" smooth="yes"/>
      <point x="591" y="1698"/>
      <point x="735" y="1786"/>
    </contour>
    <contour>
      <point x="761" y="2268" type="qcurve" smooth="yes"/>
      <point x="767" y="2236"/>
      <point x="692" y="2145"/>
      <point x="674" y="2127" type="qcurve" smooth="yes"/>
      <point x="457" y="1896" type="line"/>
      <point x="436" y="1911" type="line"/>
      <point x="568" y="2177" type="line" smooth="yes"/>
      <point x="592" y="2225"/>
      <point x="650" y="2313"/>
      <point x="685" y="2321" type="qcurve" smooth="yes"/>
      <point x="719" y="2328"/>
      <point x="757" y="2288"/>
    </contour>
  </outline>
</glyph>
<glyph name="breveacutecomb" format="2">
  <advance width="896"/>
  <anchor x="512" y="920" name="_top"/>
  <outline>
    <contour>
      <point x="692" y="1260" type="qcurve"/>
      <point x="722" y="1247" type="line"/>
      <point x="712" y="1171"/>
      <point x="549" y="1030"/>
      <point x="449" y="1030" type="qcurve" smooth="yes"/>
      <point x="349" y="1030"/>
      <point x="192" y="1155"/>
      <point x="174" y="1244" type="qcurve"/>
      <point x="208" y="1260" type="line"/>
      <point x="233" y="1214"/>
      <point x="375" y="1137"/>
      <point x="450" y="1136" type="qcurve" smooth="yes"/>
      <point x="527" y="1137"/>
      <point x="671" y="1216"/>
    </contour>
    <contour>
      <point x="677" y="1567" type="qcurve" smooth="yes"/>
      <point x="677" y="1551"/>
      <point x="665" y="1512"/>
      <point x="646" y="1498" type="qcurve" smooth="yes"/>
      <point x="407" y="1314" type="line"/>
      <point x="387" y="1330" type="line"/>
      <point x="546" y="1578" type="line" smooth="yes"/>
      <point x="561" y="1601"/>
      <point x="605" y="1622"/>
      <point x="624" y="1622" type="qcurve" smooth="yes"/>
      <point x="643" y="1622"/>
      <point x="677" y="1582"/>
    </contour>
  </outline>
</glyph>
<glyph name="brevegravecomb.case" format="2">
  <advance width="1024"/>
  <anchor x="512" y="1500" name="_top"/>
  <outline>
    <contour>
      <point x="756" y="1830" type="qcurve"/>
      <point x="786" y="1817" type="line"/>
      <point x="776" y="1741"/>
      <point x="613" y="1600"/>
      <point x="513" y="1600" type="qcurve" smooth="yes"/>
      <point x="413" y="1600"/>
      <point x="256" y="1725"/>
      <point x="238" y="1814" type="qcurve"/>
      <point x="272" y="1830" type="line"/>
      <point x="297" y="1784"/>
      <point x="439" y="1698"/>
      <point x="514" y="1697" type="qcurve" smooth="yes"/>
      <point x="591" y="1698"/>
      <point x="735" y="1786"/>
    </contour>
    <contour>
      <point x="256" y="2258" type="qcurve" smooth="yes"/>
      <point x="259" y="2279"/>
      <point x="297" y="2320"/>
      <point x="330" y="2313" type="qcurve" smooth="yes"/>
      <point x="366" y="2307"/>
      <point x="426" y="2221"/>
      <point x="451" y="2173" type="qcurve" smooth="yes"/>
      <point x="591" y="1910" type="line"/>
      <point x="570" y="1895" type="line"/>
      <point x="347" y="2120" type="line" smooth="yes"/>
      <point x="329" y="2138"/>
      <point x="251" y="2227"/>
    </contour>
  </outline>
</glyph>
<glyph name="brevehookabovecomb.case" format="2">
  <advance width="1024"/>
  <anchor x="512" y="1500" name="_top"/>
  <outline>
    <contour>
      <point x="756" y="1830" type="qcurve"/>
      <point x="786" y="1817" type="line"/>
      <point x="776" y="1741"/>
      <point x="613" y="1600"/>
      <point x="513" y="1600" type="qcurve" smooth="yes"/>
      <point x="413" y="1600"/>
      <point x="256" y="1725"/>
      <point x="238" y="1814" type="qcurve"/>
      <point x="272" y="1830" type="line"/>
      <point x="297" y="1784"/>
      <point x="439" y="1698"/>
      <point x="514" y="1697" type="qcurve" smooth="yes"/>
      <point x="591" y="1698"/>
      <point x="735" y="1786"/>
    </contour>
    <contour>
      <point x="376" y="1901" type="line"/>
      <point x="376" y="2034" type="line"/>
      <point x="416" y="2085" type="line"/>
      <point x="434" y="2076"/>
      <point x="482" y="2061"/>
      <point x="514" y="2061" type="qcurve" smooth="yes"/>
      <point x="566" y="2061"/>
      <point x="644" y="2118"/>
      <point x="644" y="2180" type="qcurve" smooth="yes"/>
      <point x="644" y="2244"/>
      <point x="552" y="2305"/>
      <point x="480" y="2305" type="qcurve" smooth="yes"/>
      <point x="428" y="2305"/>
      <point x="318" y="2266"/>
      <point x="276" y="2230" type="qcurve"/>
      <point x="248" y="2261" type="line"/>
      <point x="302" y="2319"/>
      <point x="442" y="2381"/>
      <point x="530" y="2381" type="qcurve" smooth="yes"/>
      <point x="628" y="2381"/>
      <point x="776" y="2284"/>
      <point x="776" y="2179" type="qcurve" smooth="yes"/>
      <point x="776" y="2079"/>
      <point x="650" y="1982"/>
      <point x="560" y="1982" type="qcurve" smooth="yes"/>
      <point x="526" y="1982"/>
      <point x="458" y="1999"/>
      <point x="430" y="2015" type="qcurve"/>
      <point x="430" y="1901" type="line"/>
    </contour>
  </outline>
</glyph>
<glyph name="brevehookabovecomb" format="2">
  <advance width="896"/>
  <anchor x="512" y="920" name="_top"/>
  <outline>
    <contour>
      <point x="692" y="1260" type="qcurve"/>
      <point x="722" y="1247" type="line"/>
      <point x="712" y="1171"/>
      <point x="549" y="1030"/>
      <point x="449" y="1030" type="qcurve" smooth="yes"/>
      <point x="349" y="1030"/>
      <point x="192" y="1155"/>
      <point x="174" y="1244" type="qcurve"/>
      <point x="208" y="1260" type="line"/>
      <point x="233" y="1214"/>
      <point x="375" y="1137"/>
      <point x="450" y="1136" type="qcurve" smooth="yes"/>
      <point x="527" y="1137"/>
      <point x="671" y="1216"/>
    </contour>
    <contour>
      <point x="336" y="1320" type="line"/>
      <point x="336" y="1417" type="line"/>
      <point x="372" y="1453" type="line"/>
      <point x="389" y="1448"/>
      <point x="421" y="1444"/>
      <point x="435" y="1444" type="qcurve" smooth="yes"/>
      <point x="481" y="1444"/>
      <point x="534" y="1494"/>
      <point x="534" y="1536" type="qcurve" smooth="yes"/>
      <point x="534" y="1579"/>
      <point x="476" y="1624"/>
      <point x="426" y="1624" type="qcurve" smooth="yes"/>
      <point x="396" y="1624"/>
      <point x="317" y="1606"/>
      <point x="267" y="1586" type="qcurve"/>
      <point x="253" y="1613" type="line"/>
      <point x="301" y="1650"/>
      <point x="415" y="1689"/>
      <point x="470" y="1689" type="qcurve" smooth="yes"/>
      <point x="547" y="1689"/>
      <point x="643" y="1610"/>
      <point x="643" y="1535" type="qcurve" smooth="yes"/>
      <point x="643" y="1465"/>
      <point x="541" y="1380"/>
      <point x="472" y="1381" type="qcurve" smooth="yes"/>
      <point x="451" y="1381"/>
      <point x="402" y="1386"/>
      <point x="380" y="1395" type="qcurve"/>
      <point x="380" y="1320" type="line"/>
    </contour>
  </outline>
</glyph>
<glyph name="circumflexacutecomb.case" format="2">
  <advance width="1024"/>
  <anchor x="512" y="1500" name="_top"/>
  <outline>
    <contour>
      <point x="512" y="1905" type="qcurve" smooth="yes"/>
      <point x="529" y="1905"/>
      <point x="570" y="1864"/>
      <point x="603" y="1826" type="qcurve" smooth="yes"/>
      <point x="789" y="1616" type="line"/>
      <point x="768" y="1600" type="line"/>
      <point x="512" y="1768" type="line"/>
      <point x="266" y="1600" type="line"/>
      <point x="247" y="1615" type="line"/>
      <point x="421" y="1821" type="line" smooth="yes"/>
      <point x="456" y="1862"/>
      <point x="495" y="1905"/>
    </contour>
    <contour>
      <point x="1027" y="2204" type="qcurve" smooth="yes"/>
      <point x="1033" y="2172"/>
      <point x="958" y="2081"/>
      <point x="940" y="2063" type="qcurve" smooth="yes"/>
      <point x="723" y="1832" type="line"/>
      <point x="702" y="1847" type="line"/>
      <point x="834" y="2113" type="line" smooth="yes"/>
      <point x="858" y="2161"/>
      <point x="916" y="2249"/>
      <point x="951" y="2257" type="qcurve" smooth="yes"/>
      <point x="985" y="2264"/>
      <point x="1023" y="2224"/>
    </contour>
  </outline>
</glyph>
<glyph name="circumflexacutecomb" format="2">
  <advance width="896"/>
  <anchor x="512" y="920" name="_top"/>
  <outline>
    <contour>
      <point x="447" y="1374" type="qcurve" smooth="yes"/>
      <point x="467" y="1374"/>
      <point x="507" y="1332"/>
      <point x="533" y="1290" type="qcurve" smooth="yes"/>
      <point x="674" y="1065" type="line"/>
      <point x="653" y="1049" type="line"/>
      <point x="447" y="1247" type="line"/>
      <point x="241" y="1049" type="line"/>
      <point x="222" y="1064" type="line"/>
      <point x="361" y="1290" type="line" smooth="yes"/>
      <point x="393" y="1342"/>
      <point x="427" y="1374"/>
    </contour>
    <contour>
      <point x="890" y="1564" type="qcurve" smooth="yes"/>
      <point x="890" y="1548"/>
      <point x="878" y="1509"/>
      <point x="859" y="1495" type="qcurve" smooth="yes"/>
      <point x="620" y="1311" type="line"/>
      <point x="600" y="1327" type="line"/>
      <point x="759" y="1575" type="line" smooth="yes"/>
      <point x="774" y="1598"/>
      <point x="818" y="1619"/>
      <point x="837" y="1619" type="qcurve" smooth="yes"/>
      <point x="856" y="1619"/>
      <point x="890" y="1579"/>
    </contour>
  </outline>
</glyph>
<glyph name="circumflexhookabovecomb.case" format="2">
  <advance width="1024"/>
  <anchor x="512" y="1500" name="_top"/>
  <outline>
    <contour>
      <point x="512" y="1905" type="qcurve" smooth="yes"/>
      <point x="529" y="1905"/>
      <point x="570" y="1864"/>
      <point x="603" y="1826" type="qcurve" smooth="yes"/>
      <point x="789" y="1616" type="line"/>
      <point x="768" y="1600" type="line"/>
      <point x="512" y="1768" type="line"/>
      <point x="266" y="1600" type="line"/>
      <point x="247" y="1615" type="line"/>
      <point x="421" y="1821" type="line" smooth="yes"/>
      <point x="456" y="1862"/>
      <point x="495" y="1905"/>
    </contour>
    <contour>
      <point x="809" y="1826" type="line"/>
      <point x="809" y="1960" type="line"/>
      <point x="850" y="2010" type="line"/>
      <point x="867" y="2002"/>
      <point x="916" y="1986"/>
      <point x="947" y="1986" type="qcurve" smooth="yes"/>
      <point x="999" y="1986"/>
      <point x="1078" y="2044"/>
      <point x="1078" y="2106" type="qcurve" smooth="yes"/>
      <point x="1078" y="2170"/>
      <point x="985" y="2230"/>
      <point x="913" y="2230" type="qcurve" smooth="yes"/>
      <point x="861" y="2230"/>
      <point x="751" y="2192"/>
      <point x="710" y="2156" type="qcurve"/>
      <point x="682" y="2186" type="line"/>
      <point x="735" y="2244"/>
      <point x="875" y="2306"/>
      <point x="964" y="2306" type="qcurve" smooth="yes"/>
      <point x="1062" y="2306"/>
      <point x="1209" y="2210"/>
      <point x="1209" y="2104" type="qcurve" smooth="yes"/>
      <point x="1209" y="2004"/>
      <point x="1083" y="1908"/>
      <point x="994" y="1908" type="qcurve" smooth="yes"/>
      <point x="959" y="1908"/>
      <point x="892" y="1924"/>
      <point x="864" y="1940" type="qcurve"/>
      <point x="864" y="1826" type="line"/>
    </contour>
  </outline>
</glyph>
<glyph name="circumflexhookabovecomb" format="2">
  <advance width="896"/>
  <anchor x="512" y="920" name="_top"/>
  <outline>
    <contour>
      <point x="447" y="1374" type="qcurve" smooth="yes"/>
      <point x="467" y="1374"/>
      <point x="507" y="1332"/>
      <point x="533" y="1290" type="qcurve" smooth="yes"/>
      <point x="674" y="1065" type="line"/>
      <point x="653" y="1049" type="line"/>
      <point x="447" y="1247" type="line"/>
      <point x="241" y="1049" type="line"/>
      <point x="222" y="1064" type="line"/>
      <point x="361" y="1290" type="line" smooth="yes"/>
      <point x="393" y="1342"/>
      <point x="427" y="1374"/>
    </contour>
    <contour>
      <point x="673" y="1305" type="line"/>
      <point x="673" y="1402" type="line"/>
      <point x="709" y="1438" type="line"/>
      <point x="726" y="1433"/>
      <point x="758" y="1429"/>
      <point x="772" y="1429" type="qcurve" smooth="yes"/>
      <point x="818" y="1429"/>
      <point x="871" y="1479"/>
      <point x="871" y="1521" type="qcurve" smooth="yes"/>
      <point x="871" y="1564"/>
      <point x="813" y="1609"/>
      <point x="763" y="1609" type="qcurve" smooth="yes"/>
      <point x="733" y="1609"/>
      <point x="654" y="1591"/>
      <point x="604" y="1571" type="qcurve"/>
      <point x="590" y="1598" type="line"/>
      <point x="638" y="1635"/>
      <point x="752" y="1674"/>
      <point x="807" y="1674" type="qcurve" smooth="yes"/>
      <point x="884" y="1674"/>
      <point x="980" y="1595"/>
      <point x="980" y="1520" type="qcurve" smooth="yes"/>
      <point x="980" y="1450"/>
      <point x="878" y="1365"/>
      <point x="809" y="1366" type="qcurve" smooth="yes"/>
      <point x="788" y="1366"/>
      <point x="739" y="1371"/>
      <point x="717" y="1380" type="qcurve"/>
      <point x="717" y="1305" type="line"/>
    </contour>
  </outline>
</glyph>
<glyph name="circumflextildecomb.case" format="2">
  <advance width="1024"/>
  <anchor x="512" y="1500" name="_top"/>
  <outline>
    <contour>
      <point x="512" y="1905" type="qcurve" smooth="yes"/>
      <point x="529" y="1905"/>
      <point x="570" y="1864"/>
      <point x="603" y="1826" type="qcurve" smooth="yes"/>
      <point x="789" y="1616" type="line"/>
      <point x="768" y="1600" type="line"/>
      <point x="512" y="1768" type="line"/>
      <point x="266" y="1600" type="line"/>
      <point x="247" y="1615" type="line"/>
      <point x="421" y="1821" type="line" smooth="yes"/>
      <point x="456" y="1862"/>
      <point x="495" y="1905"/>
    </contour>
    <contour>
      <point x="216" y="2050" type="line"/>
      <point x="240" y="2103"/>
      <point x="358" y="2213"/>
      <point x="414" y="2213" type="qcurve" smooth="yes"/>
      <point x="454" y="2213"/>
      <point x="514" y="2190"/>
      <point x="548" y="2167" type="qcurve" smooth="yes"/>
      <point x="588" y="2139"/>
      <point x="644" y="2108"/>
      <point x="680" y="2108" type="qcurve" smooth="yes"/>
      <point x="714" y="2108"/>
      <point x="766" y="2157"/>
      <point x="782" y="2188" type="qcurve"/>
      <point x="820" y="2158" type="line"/>
      <point x="794" y="2095"/>
      <point x="692" y="2007"/>
      <point x="646" y="2007" type="qcurve" smooth="yes"/>
      <point x="606" y="2007"/>
      <point x="540" y="2032"/>
      <point x="504" y="2054" type="qcurve" smooth="yes"/>
      <point x="468" y="2076"/>
      <point x="410" y="2114"/>
      <point x="380" y="2114" type="qcurve" smooth="yes"/>
      <point x="340" y="2114"/>
      <point x="260" y="2047"/>
      <point x="248" y="2023" type="qcurve"/>
    </contour>
  </outline>
</glyph>
<glyph name="circumflextildecomb" format="2">
  <advance width="896"/>
  <anchor x="512" y="920" name="_top"/>
  <outline>
    <contour>
      <point x="447" y="1374" type="qcurve" smooth="yes"/>
      <point x="467" y="1374"/>
      <point x="507" y="1332"/>
      <point x="533" y="1290" type="qcurve" smooth="yes"/>
      <point x="674" y="1065" type="line"/>
      <point x="653" y="1049" type="line"/>
      <point x="447" y="1247" type="line"/>
      <point x="241" y="1049" type="line"/>
      <point x="222" y="1064" type="line"/>
      <point x="361" y="1290" type="line" smooth="yes"/>
      <point x="393" y="1342"/>
      <point x="427" y="1374"/>
    </contour>
    <contour>
      <point x="162" y="1518" type="line"/>
      <point x="184" y="1568"/>
      <point x="290" y="1671"/>
      <point x="352" y="1671" type="qcurve" smooth="yes"/>
      <point x="386" y="1671"/>
      <point x="446" y="1649"/>
      <point x="476" y="1628" type="qcurve" smooth="yes"/>
      <point x="500" y="1611"/>
      <point x="558" y="1573"/>
      <point x="602" y="1573" type="qcurve" smooth="yes"/>
      <point x="634" y="1573"/>
      <point x="684" y="1619"/>
      <point x="698" y="1648" type="qcurve"/>
      <point x="734" y="1621" type="line"/>
      <point x="710" y="1561"/>
      <point x="626" y="1478"/>
      <point x="572" y="1478" type="qcurve" smooth="yes"/>
      <point x="534" y="1478"/>
      <point x="462" y="1505"/>
      <point x="436" y="1522" type="qcurve" smooth="yes"/>
      <point x="408" y="1539"/>
      <point x="342" y="1579"/>
      <point x="318" y="1579" type="qcurve" smooth="yes"/>
      <point x="280" y="1579"/>
      <point x="204" y="1517"/>
      <point x="190" y="1493" type="qcurve"/>
    </contour>
  </outline>
</glyph>
<glyph name="dotaccentcomb.case" format="2">
  <advance width="896"/>
  <anchor x="448" y="1500" name="_top"/>
  <anchor x="448" y="1806" name="top"/>
  <outline>
    <contour>
      <point x="343" y="1703" type="qcurve" smooth="yes"/>
      <point x="343" y="1753"/>
      <point x="397" y="1806"/>
      <point x="448" y="1806" type="qcurve" smooth="yes"/>
      <point x="496" y="1806"/>
      <point x="553" y="1749"/>
      <point x="553" y="1703" type="qcurve" smooth="yes"/>
      <point x="553" y="1653"/>
      <point x="499" y="1600"/>
      <point x="448" y="1600" type="qcurve" smooth="yes"/>
      <point x="400" y="1600"/>
      <point x="343" y="1657"/>
    </contour>
  </outline>
</glyph>
<glyph name="dotbelowcomb.case" format="2">
  <advance width="896"/>
  <anchor x="448" y="0" name="_bottom"/>
  <anchor x="448" y="-384" name="bottom"/>
  <outline>
    <contour>
      <point x="342" y="-282" type="qcurve" smooth="yes"/>
      <point x="342" y="-233"/>
      <point x="397" y="-180"/>
      <point x="448" y="-180" type="qcurve" smooth="yes"/>
      <point x="496" y="-180"/>
      <point x="554" y="-237"/>
      <point x="554" y="-282" type="qcurve" smooth="yes"/>
      <point x="554" y="-332"/>
      <point x="499" y="-384"/>
      <point x="448" y="-384" type="qcurve" smooth="yes"/>
      <point x="400" y="-384"/>
      <point x="342" y="-328"/>
    </contour>
  </outline>
</glyph>
<glyph name="eight.tab" format="2">
  <advance width="1070"/>
  <outline>
    <contour>
      <point x="79" y="358" type="qcurve" smooth="yes"/>
      <point x="79" y="524"/>
      <point x="316" y="748"/>
      <point x="459" y="814" type="qcurve"/>
      <point x="478" y="795" type="line"/>
      <point x="351" y="737"/>
      <point x="143" y="512"/>
      <point x="143" y="356" type="qcurve" smooth="yes"/>
      <point x="143" y="194"/>
      <point x="344" y="5"/>
      <point x="503" y="5" type="qcurve" smooth="yes"/>
      <point x="647" y="5"/>
      <point x="850" y="169"/>
      <point x="850" y="318" type="qcurve" smooth="yes"/>
      <point x="850" y="464"/>
      <point x="642" y="654"/>
      <point x="496" y="739" type="qcurve" smooth="yes"/>
      <point x="329" y="837"/>
      <point x="157" y="1020"/>
      <point x="157" y="1182" type="qcurve" smooth="yes"/>
      <point x="157" y="1335"/>
      <point x="377" y="1520"/>
      <point x="541" y="1520" type="qcurve" smooth="yes"/>
      <point x="698" y="1520"/>
      <point x="884" y="1362"/>
      <point x="884" y="1217" type="qcurve" smooth="yes"/>
      <point x="884" y="1081"/>
      <point x="713" y="885"/>
      <point x="588" y="822" type="qcurve"/>
      <point x="565" y="838" type="line"/>
      <point x="695" y="912"/>
      <point x="822" y="1095"/>
      <point x="822" y="1207" type="qcurve" smooth="yes"/>
      <point x="822" y="1347"/>
      <point x="664" y="1492"/>
      <point x="545" y="1492" type="qcurve" smooth="yes"/>
      <point x="439" y="1492"/>
      <point x="281" y="1363"/>
      <point x="281" y="1245" type="qcurve" smooth="yes"/>
      <point x="281" y="1122"/>
      <point x="420" y="975"/>
      <point x="590" y="875" type="qcurve" smooth="yes"/>
      <point x="751" y="779"/>
      <point x="991" y="555"/>
      <point x="991" y="384" type="qcurve" smooth="yes"/>
      <point x="991" y="198"/>
      <point x="724" y="-23"/>
      <point x="521" y="-23" type="qcurve" smooth="yes"/>
      <point x="324" y="-23"/>
      <point x="79" y="193"/>
    </contour>
  </outline>
</glyph>
<glyph name="engtail" format="2">
  <advance width="629"/>
  <outline>
    <contour>
      <point x="447" y="190" type="line"/>
      <point x="553" y="190" type="line"/>
      <point x="553" y="-195" type="line" smooth="yes"/>
      <point x="553" y="-295"/>
      <point x="429" y="-443"/>
      <point x="297" y="-443" type="qcurve" smooth="yes"/>
      <point x="225" y="-443"/>
      <point x="98" y="-367"/>
      <point x="75" y="-329" type="qcurve"/>
      <point x="107" y="-299" type="line"/>
      <point x="147" y="-342"/>
      <point x="250" y="-375"/>
      <point x="291" y="-375" type="qcurve" smooth="yes"/>
      <point x="332" y="-375"/>
      <point x="397" y="-288"/>
      <point x="397" y="-185" type="qcurve" smooth="yes"/>
      <point x="397" y="-106"/>
      <point x="397" y="150"/>
      <point x="397" y="150" type="qcurve"/>
    </contour>
  </outline>
</glyph>
<glyph name="four.tab" format="2">
  <advance width="1070"/>
  <outline>
    <contour>
      <point x="14" y="517" type="line"/>
      <point x="687" y="1524" type="line"/>
      <point x="784" y="1484" type="line"/>
      <point x="804" y="1474" type="line"/>
      <point x="798" y="502" type="line"/>
      <point x="798" y="59" type="line"/>
      <point x="981" y="24" type="line"/>
      <point x="981" y="0" type="line"/>
      <point x="401" y="0" type="line"/>
      <point x="401" y="24" type="line"/>
      <point x="632" y="59" type="line"/>
      <point x="632" y="505" type="line"/>
      <point x="638" y="1377" type="line"/>
      <point x="75" y="540" type="line"/>
      <point x="78" y="533" type="line"/>
      <point x="1026" y="516" type="line"/>
      <point x="1026" y="487" type="line"/>
      <point x="25" y="477" type="line"/>
    </contour>
  </outline>
</glyph>
<glyph name="nine.tab" format="2">
  <advance width="1070"/>
  <outline>
    <contour>
      <point x="995" y="917" type="qcurve" smooth="yes"/>
      <point x="995" y="515"/>
      <point x="578" y="33"/>
      <point x="266" y="-53" type="qcurve"/>
      <point x="241" y="-25" type="line"/>
      <point x="518" y="61"/>
      <point x="820" y="490"/>
      <point x="820" y="851" type="qcurve" smooth="yes"/>
      <point x="820" y="1206"/>
      <point x="638" y="1492"/>
      <point x="478" y="1492" type="qcurve" smooth="yes"/>
      <point x="361" y="1492"/>
      <point x="218" y="1316"/>
      <point x="218" y="1110" type="qcurve" smooth="yes"/>
      <point x="218" y="907"/>
      <point x="376" y="730"/>
      <point x="492" y="730" type="qcurve" smooth="yes"/>
      <point x="555" y="730"/>
      <point x="674" y="773"/>
      <point x="702" y="797" type="qcurve"/>
      <point x="709" y="776" type="line"/>
      <point x="681" y="744"/>
      <point x="542" y="687"/>
      <point x="443" y="687" type="qcurve" smooth="yes"/>
      <point x="283" y="687"/>
      <point x="44" y="907"/>
      <point x="44" y="1110" type="qcurve" smooth="yes"/>
      <point x="44" y="1290"/>
      <point x="293" y="1520"/>
      <point x="499" y="1520" type="qcurve" smooth="yes"/>
      <point x="710" y="1520"/>
      <point x="995" y="1185"/>
    </contour>
  </outline>
</glyph>
<glyph name="one.tab" format="2">
  <advance width="1070"/>
  <outline>
    <contour>
      <point x="152" y="0" type="line"/>
      <point x="152" y="24" type="line"/>
      <point x="457" y="59" type="line"/>
      <point x="457" y="754" type="line"/>
      <point x="452" y="1391" type="line"/>
      <point x="150" y="1413" type="line"/>
      <point x="150" y="1439" type="line"/>
      <point x="605" y="1521" type="line"/>
      <point x="626" y="1502" type="line"/>
      <point x="617" y="753" type="line"/>
      <point x="617" y="59" type="line"/>
      <point x="911" y="24" type="line"/>
      <point x="911" y="0" type="line"/>
    </contour>
  </outline>
</glyph>
<glyph name="seven.tab" format="2">
  <advance width="1070"/>
  <outline>
    <contour>
      <point x="92" y="1148" type="line"/>
      <point x="112" y="1500" type="line"/>
      <point x="993" y="1500" type="line"/>
      <point x="993" y="1430" type="line"/>
      <point x="648" y="662" type="line"/>
      <point x="371" y="0" type="line"/>
      <point x="286" y="0" type="line"/>
      <point x="286" y="32" type="line"/>
      <point x="620" y="677" type="line"/>
      <point x="913" y="1322" type="line"/>
      <point x="907" y="1330" type="line"/>
      <point x="179" y="1330" type="line"/>
      <point x="119" y="1148" type="line"/>
    </contour>
  </outline>
</glyph>
<glyph name="six.tab" format="2">
  <advance width="1070"/>
  <outline>
    <contour>
      <point x="65" y="603" type="qcurve" smooth="yes"/>
      <point x="65" y="969"/>
      <point x="465" y="1461"/>
      <point x="777" y="1550" type="qcurve"/>
      <point x="808" y="1521" type="line"/>
      <point x="546" y="1444"/>
      <point x="238" y="981"/>
      <point x="238" y="595" type="qcurve" smooth="yes"/>
      <point x="238" y="269"/>
      <point x="413" y="5"/>
      <point x="560" y="5" type="qcurve" smooth="yes"/>
      <point x="677" y="5"/>
      <point x="851" y="181"/>
      <point x="851" y="427" type="qcurve" smooth="yes"/>
      <point x="851" y="669"/>
      <point x="683" y="832"/>
      <point x="566" y="832" type="qcurve" smooth="yes"/>
      <point x="503" y="832"/>
      <point x="387" y="800"/>
      <point x="359" y="776" type="qcurve"/>
      <point x="342" y="800" type="line"/>
      <point x="370" y="832"/>
      <point x="517" y="890"/>
      <point x="616" y="890" type="qcurve" smooth="yes"/>
      <point x="776" y="890"/>
      <point x="1016" y="670"/>
      <point x="1016" y="467" type="qcurve" smooth="yes"/>
      <point x="1016" y="245"/>
      <point x="757" y="-24"/>
      <point x="552" y="-24" type="qcurve" smooth="yes"/>
      <point x="340" y="-24"/>
      <point x="65" y="297"/>
    </contour>
  </outline>
</glyph>
<glyph name="three.tab" format="2">
  <advance width="1070"/>
  <outline>
    <contour>
      <point x="1" y="190" type="qcurve"/>
      <point x="31" y="224" type="line"/>
      <point x="63" y="163"/>
      <point x="264" y="25"/>
      <point x="417" y="25" type="qcurve" smooth="yes"/>
      <point x="583" y="25"/>
      <point x="762" y="259"/>
      <point x="762" y="444" type="qcurve" smooth="yes"/>
      <point x="762" y="623"/>
      <point x="542" y="813"/>
      <point x="348" y="813" type="qcurve" smooth="yes"/>
      <point x="290" y="813" type="line"/>
      <point x="279" y="850" type="line"/>
      <point x="337" y="850" type="line" smooth="yes"/>
      <point x="490" y="850"/>
      <point x="694" y="1048"/>
      <point x="694" y="1191" type="qcurve" smooth="yes"/>
      <point x="694" y="1328"/>
      <point x="544" y="1468"/>
      <point x="425" y="1468" type="qcurve" smooth="yes"/>
      <point x="314" y="1468"/>
      <point x="145" y="1363"/>
      <point x="95" y="1287" type="qcurve"/>
      <point x="70" y="1323" type="line"/>
      <point x="122" y="1406"/>
      <point x="335" y="1520"/>
      <point x="469" y="1520" type="qcurve" smooth="yes"/>
      <point x="632" y="1520"/>
      <point x="865" y="1366"/>
      <point x="865" y="1229" type="qcurve" smooth="yes"/>
      <point x="865" y="1087"/>
      <point x="661" y="890"/>
      <point x="489" y="851" type="qcurve"/>
      <point x="489" y="844" type="line"/>
      <point x="673" y="824"/>
      <point x="940" y="615"/>
      <point x="940" y="430" type="qcurve" smooth="yes"/>
      <point x="940" y="238"/>
      <point x="667" y="-25"/>
      <point x="442" y="-25" type="qcurve" smooth="yes"/>
      <point x="264" y="-25"/>
      <point x="36" y="131"/>
    </contour>
  </outline>
</glyph>
<glyph name="zero.tab" format="2">
  <advance width="1070"/>
  <outline>
    <contour>
      <point x="70" y="749" type="qcurve" smooth="yes"/>
      <point x="70" y="1123"/>
      <point x="329" y="1520"/>
      <point x="537" y="1520" type="qcurve" smooth="yes"/>
      <point x="748" y="1520"/>
      <point x="1000" y="1127"/>
      <point x="1000" y="754" type="qcurve" smooth="yes"/>
      <point x="1000" y="396"/>
      <point x="752" y="-26"/>
      <point x="537" y="-26" type="qcurve" smooth="yes"/>
      <point x="332" y="-26"/>
      <point x="70" y="367"/>
    </contour>
    <contour>
      <point x="242" y="779" type="qcurve" smooth="yes"/>
      <point x="243" y="364"/>
      <point x="405" y="3"/>
      <point x="536" y="3" type="qcurve" smooth="yes"/>
      <point x="675" y="3"/>
      <point x="827" y="334"/>
      <point x="828" y="757" type="qcurve" smooth="yes"/>
      <point x="830" y="1177"/>
      <point x="666" y="1489"/>
      <point x="537" y="1489" type="qcurve" smooth="yes"/>
      <point x="398" y="1489"/>
      <point x="241" y="1206"/>
    </contour>
  </outline>
</glyph>
